<svg version="1.1" id="Layer_1" xmlns="http://www.w3.org/2000/svg" xmlns:xlink="http://www.w3.org/1999/xlink" x="0px" y="0px"
	 width="100%" viewBox="0 0 1254 1254" enable-background="new 0 0 1254 1254" xml:space="preserve">
<path fill="#000000" opacity="1.000000" stroke="none" 
	d="
M829.000000,1255.000000 
	C552.666687,1255.000000 276.833344,1255.000000 1.000000,1255.000000 
	C1.000000,837.000000 1.000000,419.000000 1.000000,1.000000 
	C419.000000,1.000000 837.000000,1.000000 1255.000000,1.000000 
	C1255.000000,419.000000 1255.000000,837.000000 1255.000000,1255.000000 
	C1113.166626,1255.000000 971.333313,1255.000000 829.000000,1255.000000 
M307.991028,722.143921 
	C307.443329,717.512512 306.612122,712.893860 306.402649,708.247253 
	C305.838867,695.739258 307.002563,683.532959 314.521362,672.875366 
	C319.481628,665.844360 326.239807,662.235779 334.988892,662.628174 
	C337.908203,662.759094 339.810913,663.808655 341.038971,666.731689 
	C342.643250,670.550171 344.644775,674.252380 346.886597,677.740234 
	C350.031952,682.633850 354.684021,684.630798 359.130371,683.530029 
	C363.927826,682.342346 367.160980,678.350769 367.903259,672.569946 
	C371.558899,644.100464 377.912140,616.232971 387.005280,589.024048 
	C393.233185,570.388611 400.531952,552.201172 411.309967,535.590576 
	C413.993225,531.455200 416.956512,528.914185 422.252502,529.738098 
	C426.186432,530.350159 430.217346,530.353394 434.207428,530.587097 
	C443.058136,531.105469 450.262268,525.062073 451.099579,516.424500 
	C451.774414,509.462799 452.153931,502.459259 453.158142,495.546021 
	C454.427307,486.808899 456.197327,478.144470 457.889679,468.674255 
	C461.753143,471.316620 464.479828,473.186035 467.211060,475.048767 
	C506.157715,501.611115 547.414185,523.381775 593.573547,534.467773 
	C604.682739,537.135803 616.216003,538.469116 627.635071,539.286865 
	C637.720520,540.009094 643.678711,531.886292 641.336365,522.208069 
	C640.749695,519.783997 640.009277,517.394226 639.498657,514.955322 
	C637.362610,504.752258 635.287170,494.536499 632.891541,482.875214 
	C635.834900,484.539001 637.288574,485.247498 638.625122,486.132996 
	C664.729248,503.428436 690.668152,520.979431 716.977539,537.956299 
	C729.968384,546.338928 743.393250,554.135437 757.079224,561.326477 
	C767.668579,566.890442 776.789917,561.311340 778.206909,549.479004 
	C779.061157,542.345093 779.895691,535.208740 780.739136,528.073486 
	C781.226440,527.805481 781.713684,527.537476 782.200989,527.269409 
	C796.266541,538.683289 810.201172,550.263367 824.432312,561.466980 
	C840.517700,574.130310 849.690796,590.781677 853.732300,610.523560 
	C858.869263,635.617004 863.973877,660.718018 868.873535,685.858398 
	C869.902527,691.138428 872.308777,694.769409 877.425049,696.441956 
	C882.715210,698.171265 887.075623,696.161560 890.380737,692.288635 
	C892.944702,689.284180 894.880737,685.704285 896.848572,682.239685 
	C900.059631,676.586121 902.881592,674.954285 909.305359,675.739685 
	C915.749817,676.527588 920.911865,679.726624 924.918396,684.722351 
	C929.728943,690.720581 933.602356,697.736877 933.069153,705.247253 
	C932.209167,717.359192 938.681030,721.498291 948.804565,723.182129 
	C948.967590,723.209229 949.123352,723.278320 949.283752,723.323486 
	C954.090332,724.677307 956.716736,722.928955 956.986023,717.944336 
	C957.718018,704.395203 955.637817,691.314514 949.642212,679.066223 
	C944.005737,667.551697 935.324158,659.071045 923.218750,654.511963 
	C919.694397,653.184631 915.869995,652.653931 912.004822,651.714722 
	C915.513000,640.436584 919.065918,629.342651 922.402527,618.184082 
	C925.061096,609.293091 922.942383,601.349487 917.019348,596.805847 
	C910.508789,591.811462 905.617065,593.243347 903.038025,600.949890 
	C898.656799,614.041321 894.327820,627.150208 889.936401,640.238159 
	C889.299683,642.135864 888.438904,643.958313 887.528442,646.191711 
	C883.942200,630.655518 880.782288,615.683899 876.985840,600.875549 
	C873.090698,585.682373 868.408997,570.570923 857.768372,558.552795 
	C834.556519,532.335815 806.374268,512.214111 776.573425,494.286896 
	C768.650574,489.520752 758.976074,494.710846 757.748169,503.890656 
	C756.799072,510.986389 756.405518,518.155762 755.728088,525.288940 
	C755.565308,527.002686 755.256470,528.702637 754.945496,530.897949 
	C752.169983,529.254028 749.991699,528.084595 747.936707,526.728516 
	C718.607239,507.374268 689.384460,487.856323 659.923767,468.704254 
	C650.877625,462.823486 641.461548,457.359833 631.728577,452.726746 
	C619.998413,447.142975 608.544922,454.322937 607.970459,467.208130 
	C607.667847,473.997040 607.968201,480.872498 608.701660,487.632355 
	C609.550293,495.453888 611.174438,503.191254 612.525879,511.351715 
	C610.628784,511.068817 609.122681,511.032532 607.735107,510.608429 
	C592.624023,505.990082 577.252380,502.053131 562.489441,496.500763 
	C526.865234,483.102478 495.030273,462.695618 463.748718,441.386169 
	C452.032379,433.404785 440.418274,437.563232 437.087219,451.508087 
	C432.882721,469.109589 429.519470,486.912048 425.755951,504.805511 
	C425.218658,504.738129 423.893188,504.629730 422.589203,504.399506 
	C409.479248,502.084991 399.409607,506.762726 392.086212,517.685669 
	C390.234039,520.448242 388.450897,523.264465 386.777893,526.138611 
	C376.433380,543.910156 368.833679,562.878662 362.827271,582.474304 
	C358.576477,596.342346 354.886292,610.382263 350.781586,624.927673 
	C350.390961,623.827087 350.084503,623.153076 349.910522,622.446472 
	C338.954437,577.945984 329.217560,533.217224 323.157806,487.727264 
	C321.781616,477.396301 325.405792,469.543121 331.758545,462.340088 
	C337.060059,456.329132 336.881409,454.687958 329.313049,451.946045 
	C327.062103,451.130615 324.407104,450.797974 322.030151,451.066528 
	C307.459747,452.712677 295.130188,467.875702 297.611603,482.203186 
	C303.352264,515.348816 309.287781,548.472900 315.965332,581.439453 
	C319.862366,600.678833 325.341797,619.597717 330.018921,638.299377 
	C324.318542,640.228027 318.345306,641.458069 313.131134,644.155396 
	C294.518555,653.783997 286.328369,670.499939 284.169281,690.362732 
	C281.066315,718.909424 288.111145,745.647888 300.783569,770.982666 
	C309.082642,787.574097 321.883087,799.599854 339.815125,805.380737 
	C342.906586,806.377380 343.905792,807.993713 344.556671,810.801880 
	C354.261688,852.672974 374.774261,888.635315 405.629059,918.290222 
	C462.075073,972.541260 530.518250,996.668701 608.094421,996.819397 
	C614.861145,996.832581 617.182739,994.377075 617.149719,987.856018 
	C617.108093,979.627991 613.655029,975.165405 607.331787,975.086304 
	C555.232239,974.435486 506.465088,961.819885 461.950012,934.253845 
	C429.513733,914.167603 402.990234,888.203674 384.208923,854.742371 
	C373.789185,836.178284 366.118103,816.590515 362.905945,795.435730 
	C362.342834,791.727356 360.804047,790.204468 356.800110,789.863098 
	C352.961304,789.535889 348.966980,788.157593 345.549377,786.303894 
	C335.341705,780.767334 327.720673,772.467529 321.995270,762.421143 
	C314.987518,750.124512 310.759460,736.838074 307.991028,722.143921 
M450.216003,305.697205 
	C471.395172,287.410675 494.690826,272.575500 521.303040,261.805115 
	C521.020264,266.692291 520.728699,270.974365 520.532227,275.260834 
	C519.797852,291.287964 520.036072,307.252716 523.738831,322.983673 
	C526.593140,335.109985 536.628967,339.732971 547.302246,333.914490 
	C555.782715,329.291382 564.249268,324.632446 572.855408,320.251678 
	C623.921021,294.257843 677.890381,280.189270 735.429565,281.230530 
	C744.628357,281.397003 753.810242,282.498383 763.984680,283.239258 
	C759.627197,288.649353 755.768921,292.813263 752.625183,297.460571 
	C743.304871,311.238708 733.874878,324.969849 725.247986,339.180908 
	C718.973999,349.516174 724.865356,359.834595 736.931763,361.125031 
	C739.913391,361.443878 742.899902,361.724823 745.888672,361.968536 
	C783.532227,365.037811 820.517578,371.377350 856.289062,383.904755 
	C887.060242,394.681000 916.275940,408.412415 942.768677,427.706909 
	C948.508179,431.886963 950.522461,435.734619 948.475952,442.912445 
	C938.386841,478.298645 928.903809,513.857178 918.997314,549.296265 
	C916.088989,559.700684 917.432739,564.593506 926.161682,570.654602 
	C932.436584,575.011780 937.678955,573.410461 940.208496,566.180847 
	C942.353882,560.049377 944.299316,553.846436 946.255554,547.650574 
	C957.645081,511.577911 967.582092,475.122803 975.427246,438.100128 
	C977.470703,428.456635 975.202148,420.603638 967.392517,414.575317 
	C959.624084,408.578796 952.046570,402.252563 943.822815,396.941956 
	C894.129333,364.851318 839.239197,347.147980 781.013855,338.917053 
	C773.051147,337.791382 765.049622,336.940613 756.606628,335.906311 
	C767.422485,318.512268 780.037903,303.511566 793.484558,289.184662 
	C797.990784,284.383484 800.726807,279.118042 798.809692,272.483398 
	C796.853760,265.714478 791.850708,262.320312 785.156555,260.807434 
	C750.199036,252.907135 715.048767,253.388931 679.846802,258.547394 
	C634.574707,265.181519 591.947632,279.788025 551.843933,301.797760 
	C550.473572,302.549866 548.996704,303.107880 547.150635,303.946594 
	C546.997620,302.038300 546.773804,300.743195 546.808777,299.455078 
	C547.238464,283.639435 547.588989,267.820312 548.197510,252.011230 
	C548.781189,236.845322 538.234436,228.177124 523.955750,233.380371 
	C510.560425,238.261703 497.126831,243.533447 484.646606,250.348480 
	C414.762390,288.509949 371.362061,348.557312 344.420471,421.950531 
	C343.056396,425.666473 344.077728,428.700409 347.011871,430.773499 
	C349.680054,432.658630 352.732544,434.227753 355.844910,435.208588 
	C362.297974,437.242188 366.268280,434.992828 368.891510,428.778534 
	C373.157776,418.671936 377.276978,408.487244 381.985352,398.586182 
	C398.671234,363.498169 420.329926,332.000031 450.216003,305.697205 
M948.685242,767.092102 
	C949.512512,773.607300 951.851929,780.354736 950.893127,786.595581 
	C947.567139,808.245544 928.686035,825.597473 904.767578,828.817505 
	C893.581055,830.323486 884.833923,826.551575 879.551636,816.006104 
	C878.536560,813.979736 877.025818,811.973633 875.243713,810.613098 
	C872.606140,808.599426 870.223694,808.421326 869.193359,812.711670 
	C867.601440,819.340393 865.757690,825.921021 863.702637,832.421448 
	C862.484741,836.273926 863.121277,839.439758 866.231018,841.798706 
	C870.935303,845.367432 875.852844,848.655029 880.958069,852.258484 
	C874.702515,864.396790 866.731079,875.788574 856.901001,885.877319 
	C827.590759,915.958862 791.031738,930.159363 750.032654,934.507202 
	C748.670227,934.651672 746.411133,933.576538 745.794678,932.418091 
	C738.219421,918.184143 725.831909,913.832458 710.652344,914.532898 
	C696.340393,915.193298 682.016724,915.670532 667.692932,915.991821 
	C647.566284,916.443298 632.696411,931.919617 633.119019,952.230652 
	C633.518127,971.411865 649.074768,985.976440 668.859131,985.498352 
	C683.850342,985.136169 698.833252,984.306335 713.825134,984.131592 
	C729.272583,983.951416 739.956421,976.754700 747.161438,963.425598 
	C748.036499,961.806824 750.389893,960.372375 752.277832,960.015930 
	C764.212280,957.762756 776.421631,956.668274 788.148315,953.662476 
	C842.686035,939.683289 882.707642,907.721680 906.827393,856.417297 
	C907.616272,854.739441 909.911133,853.113770 911.777222,852.701721 
	C926.766541,849.392822 940.268616,843.050049 951.155334,832.244080 
	C968.065491,815.459290 978.488708,795.656128 975.678589,770.978394 
	C973.064392,748.020630 955.764709,734.148315 933.883972,737.263611 
	C930.410156,737.758179 927.222046,740.259460 923.901794,741.832886 
	C926.214661,744.260193 928.367371,746.871704 930.886719,749.061401 
	C933.260864,751.124878 936.372192,752.404297 938.532043,754.635681 
	C942.075989,758.296936 945.112427,762.449341 948.685242,767.092102 
M521.084351,676.436096 
	C520.386536,675.503906 519.699036,674.563904 518.989502,673.640747 
	C502.884918,652.687378 479.055908,652.998108 463.545074,674.361816 
	C448.358032,695.279480 448.444458,729.129822 463.739349,750.460388 
	C478.541687,771.104004 502.571777,771.756348 518.365417,751.943298 
	C533.903931,732.450439 535.193726,701.304016 521.084351,676.436096 
M592.388062,888.047302 
	C623.892883,891.289856 653.492004,885.520874 680.069702,867.968811 
	C689.279785,861.886353 697.390686,854.044373 705.564270,846.528259 
	C709.585205,842.830811 708.998230,837.114929 705.326111,833.590576 
	C701.719910,830.129395 697.164490,830.318176 692.846008,834.143433 
	C691.600403,835.246704 690.451904,836.459351 689.210388,837.567566 
	C659.772095,863.847473 625.523865,873.811829 586.658813,867.267517 
	C566.324402,863.843506 548.638306,854.629272 533.222412,840.980530 
	C528.806641,837.071045 524.047913,837.107056 520.386841,840.930786 
	C517.096008,844.367798 517.119202,849.692017 520.598267,853.583313 
	C522.257507,855.439148 524.104431,857.143616 525.979614,858.787354 
	C544.798218,875.283508 566.723083,884.829102 592.388062,888.047302 
M772.544434,715.998657 
	C760.105225,704.354492 745.419617,697.483521 728.503723,695.536194 
	C703.743103,692.685852 682.126221,699.843506 663.625732,716.426697 
	C658.984802,720.586670 658.493408,727.615356 662.142944,732.235474 
	C666.019348,737.142822 672.083679,737.839600 677.680969,734.020874 
	C702.737183,716.926331 732.580322,716.877014 758.285522,733.887573 
	C764.515198,738.010193 770.380554,737.697083 774.490845,733.022339 
	C778.639893,728.303406 778.097961,722.000305 772.544434,715.998657 
M722.116211,641.271667 
	C739.392944,638.490540 756.287109,638.823608 772.338196,647.017822 
	C776.709473,649.249451 780.551392,647.648376 783.394592,644.036804 
	C786.205261,640.466614 786.032837,636.417908 783.356262,632.937866 
	C781.798828,630.912903 779.497375,629.272888 777.222717,628.017822 
	C764.138367,620.798035 749.935181,618.813538 735.221130,619.452087 
	C712.350281,620.444641 691.154358,627.403687 670.860901,637.552368 
	C664.599670,640.683533 662.216553,646.138367 664.767639,651.311584 
	C667.460083,656.771301 673.161499,658.298889 679.708191,655.140076 
	C692.963013,648.744690 706.739502,643.970398 722.116211,641.271667 
M509.486023,619.793823 
	C514.299683,622.024963 519.049316,624.412354 523.953491,626.422668 
	C526.472961,627.455383 529.315674,628.502563 531.927979,628.322266 
	C536.113953,628.033447 538.889221,625.164246 539.763794,621.021179 
	C540.767090,616.268127 538.720703,612.738708 534.921875,609.835083 
	C508.745850,589.827271 467.118256,590.263672 440.145813,610.911682 
	C434.994019,614.855469 433.694763,620.056091 436.673553,624.810486 
	C439.560364,629.418030 445.179047,630.415344 450.793610,626.975159 
	C469.014343,615.810852 488.273834,613.093994 509.486023,619.793823 
M913.410522,804.056396 
	C920.843933,800.289490 926.177551,794.633850 929.016113,786.726929 
	C930.516907,782.546387 930.334473,778.511902 927.688904,774.848694 
	C924.086792,769.860901 919.380371,770.102661 915.704224,774.919617 
	C911.781738,780.059082 907.587769,785.013916 903.234009,789.795959 
	C898.104919,795.429443 896.768921,799.115845 899.132507,802.891663 
	C901.431396,806.564209 905.507874,807.005432 913.410522,804.056396 
z"/>
<path fill="#F9F9F9" opacity="1.000000" stroke="none" 
	d="
M308.057495,722.570496 
	C310.759460,736.838074 314.987518,750.124512 321.995270,762.421143 
	C327.720673,772.467529 335.341705,780.767334 345.549377,786.303894 
	C348.966980,788.157593 352.961304,789.535889 356.800110,789.863098 
	C360.804047,790.204468 362.342834,791.727356 362.905945,795.435730 
	C366.118103,816.590515 373.789185,836.178284 384.208923,854.742371 
	C402.990234,888.203674 429.513733,914.167603 461.950012,934.253845 
	C506.465088,961.819885 555.232239,974.435486 607.331787,975.086304 
	C613.655029,975.165405 617.108093,979.627991 617.149719,987.856018 
	C617.182739,994.377075 614.861145,996.832581 608.094421,996.819397 
	C530.518250,996.668701 462.075073,972.541260 405.629059,918.290222 
	C374.774261,888.635315 354.261688,852.672974 344.556671,810.801880 
	C343.905792,807.993713 342.906586,806.377380 339.815125,805.380737 
	C321.883087,799.599854 309.082642,787.574097 300.783569,770.982666 
	C288.111145,745.647888 281.066315,718.909424 284.169281,690.362732 
	C286.328369,670.499939 294.518555,653.783997 313.131134,644.155396 
	C318.345306,641.458069 324.318542,640.228027 330.018921,638.299377 
	C325.341797,619.597717 319.862366,600.678833 315.965332,581.439453 
	C309.287781,548.472900 303.352264,515.348816 297.611603,482.203186 
	C295.130188,467.875702 307.459747,452.712677 322.030151,451.066528 
	C324.407104,450.797974 327.062103,451.130615 329.313049,451.946045 
	C336.881409,454.687958 337.060059,456.329132 331.758545,462.340088 
	C325.405792,469.543121 321.781616,477.396301 323.157806,487.727264 
	C329.217560,533.217224 338.954437,577.945984 349.910522,622.446472 
	C350.084503,623.153076 350.390961,623.827087 350.781586,624.927673 
	C354.886292,610.382263 358.576477,596.342346 362.827271,582.474304 
	C368.833679,562.878662 376.433380,543.910156 386.777893,526.138611 
	C388.450897,523.264465 390.234039,520.448242 392.086212,517.685669 
	C399.409607,506.762726 409.479248,502.084991 422.589203,504.399506 
	C423.893188,504.629730 425.218658,504.738129 425.755951,504.805511 
	C429.519470,486.912048 432.882721,469.109589 437.087219,451.508087 
	C440.418274,437.563232 452.032379,433.404785 463.748718,441.386169 
	C495.030273,462.695618 526.865234,483.102478 562.489441,496.500763 
	C577.252380,502.053131 592.624023,505.990082 607.735107,510.608429 
	C609.122681,511.032532 610.628784,511.068817 612.525879,511.351715 
	C611.174438,503.191254 609.550293,495.453888 608.701660,487.632355 
	C607.968201,480.872498 607.667847,473.997040 607.970459,467.208130 
	C608.544922,454.322937 619.998413,447.142975 631.728577,452.726746 
	C641.461548,457.359833 650.877625,462.823486 659.923767,468.704254 
	C689.384460,487.856323 718.607239,507.374268 747.936707,526.728516 
	C749.991699,528.084595 752.169983,529.254028 754.945496,530.897949 
	C755.256470,528.702637 755.565308,527.002686 755.728088,525.288940 
	C756.405518,518.155762 756.799072,510.986389 757.748169,503.890656 
	C758.976074,494.710846 768.650574,489.520752 776.573425,494.286896 
	C806.374268,512.214111 834.556519,532.335815 857.768372,558.552795 
	C868.408997,570.570923 873.090698,585.682373 876.985840,600.875549 
	C880.782288,615.683899 883.942200,630.655518 887.528442,646.191711 
	C888.438904,643.958313 889.299683,642.135864 889.936401,640.238159 
	C894.327820,627.150208 898.656799,614.041321 903.038025,600.949890 
	C905.617065,593.243347 910.508789,591.811462 917.019348,596.805847 
	C922.942383,601.349487 925.061096,609.293091 922.402527,618.184082 
	C919.065918,629.342651 915.513000,640.436584 912.004822,651.714722 
	C915.869995,652.653931 919.694397,653.184631 923.218750,654.511963 
	C935.324158,659.071045 944.005737,667.551697 949.642212,679.066223 
	C955.637817,691.314514 957.718018,704.395203 956.986023,717.944336 
	C956.716736,722.928955 954.090332,724.677307 949.283752,723.323486 
	C949.123352,723.278320 948.967590,723.209229 948.804565,723.182129 
	C938.681030,721.498291 932.209167,717.359192 933.069153,705.247253 
	C933.602356,697.736877 929.728943,690.720581 924.918396,684.722351 
	C920.911865,679.726624 915.749817,676.527588 909.305359,675.739685 
	C902.881592,674.954285 900.059631,676.586121 896.848572,682.239685 
	C894.880737,685.704285 892.944702,689.284180 890.380737,692.288635 
	C887.075623,696.161560 882.715210,698.171265 877.425049,696.441956 
	C872.308777,694.769409 869.902527,691.138428 868.873535,685.858398 
	C863.973877,660.718018 858.869263,635.617004 853.732300,610.523560 
	C849.690796,590.781677 840.517700,574.130310 824.432312,561.466980 
	C810.201172,550.263367 796.266541,538.683289 782.200989,527.269409 
	C781.713684,527.537476 781.226440,527.805481 780.739136,528.073486 
	C779.895691,535.208740 779.061157,542.345093 778.206909,549.479004 
	C776.789917,561.311340 767.668579,566.890442 757.079224,561.326477 
	C743.393250,554.135437 729.968384,546.338928 716.977539,537.956299 
	C690.668152,520.979431 664.729248,503.428436 638.625122,486.132996 
	C637.288574,485.247498 635.834900,484.539001 632.891541,482.875214 
	C635.287170,494.536499 637.362610,504.752258 639.498657,514.955322 
	C640.009277,517.394226 640.749695,519.783997 641.336365,522.208069 
	C643.678711,531.886292 637.720520,540.009094 627.635071,539.286865 
	C616.216003,538.469116 604.682739,537.135803 593.573547,534.467773 
	C547.414185,523.381775 506.157715,501.611115 467.211060,475.048767 
	C464.479828,473.186035 461.753143,471.316620 457.889679,468.674255 
	C456.197327,478.144470 454.427307,486.808899 453.158142,495.546021 
	C452.153931,502.459259 451.774414,509.462799 451.099579,516.424500 
	C450.262268,525.062073 443.058136,531.105469 434.207428,530.587097 
	C430.217346,530.353394 426.186432,530.350159 422.252502,529.738098 
	C416.956512,528.914185 413.993225,531.455200 411.309967,535.590576 
	C400.531952,552.201172 393.233185,570.388611 387.005280,589.024048 
	C377.912140,616.232971 371.558899,644.100464 367.903259,672.569946 
	C367.160980,678.350769 363.927826,682.342346 359.130371,683.530029 
	C354.684021,684.630798 350.031952,682.633850 346.886597,677.740234 
	C344.644775,674.252380 342.643250,670.550171 341.038971,666.731689 
	C339.810913,663.808655 337.908203,662.759094 334.988892,662.628174 
	C326.239807,662.235779 319.481628,665.844360 314.521362,672.875366 
	C307.002563,683.532959 305.838867,695.739258 306.402649,708.247253 
	C306.612122,712.893860 307.443329,717.512512 308.057495,722.570496 
z"/>
<path fill="#F9F9FA" opacity="1.000000" stroke="none" 
	d="
M449.954773,305.936157 
	C420.329926,332.000031 398.671234,363.498169 381.985352,398.586182 
	C377.276978,408.487244 373.157776,418.671936 368.891510,428.778534 
	C366.268280,434.992828 362.297974,437.242188 355.844910,435.208588 
	C352.732544,434.227753 349.680054,432.658630 347.011871,430.773499 
	C344.077728,428.700409 343.056396,425.666473 344.420471,421.950531 
	C371.362061,348.557312 414.762390,288.509949 484.646606,250.348480 
	C497.126831,243.533447 510.560425,238.261703 523.955750,233.380371 
	C538.234436,228.177124 548.781189,236.845322 548.197510,252.011230 
	C547.588989,267.820312 547.238464,283.639435 546.808777,299.455078 
	C546.773804,300.743195 546.997620,302.038300 547.150635,303.946594 
	C548.996704,303.107880 550.473572,302.549866 551.843933,301.797760 
	C591.947632,279.788025 634.574707,265.181519 679.846802,258.547394 
	C715.048767,253.388931 750.199036,252.907135 785.156555,260.807434 
	C791.850708,262.320312 796.853760,265.714478 798.809692,272.483398 
	C800.726807,279.118042 797.990784,284.383484 793.484558,289.184662 
	C780.037903,303.511566 767.422485,318.512268 756.606628,335.906311 
	C765.049622,336.940613 773.051147,337.791382 781.013855,338.917053 
	C839.239197,347.147980 894.129333,364.851318 943.822815,396.941956 
	C952.046570,402.252563 959.624084,408.578796 967.392517,414.575317 
	C975.202148,420.603638 977.470703,428.456635 975.427246,438.100128 
	C967.582092,475.122803 957.645081,511.577911 946.255554,547.650574 
	C944.299316,553.846436 942.353882,560.049377 940.208496,566.180847 
	C937.678955,573.410461 932.436584,575.011780 926.161682,570.654602 
	C917.432739,564.593506 916.088989,559.700684 918.997314,549.296265 
	C928.903809,513.857178 938.386841,478.298645 948.475952,442.912445 
	C950.522461,435.734619 948.508179,431.886963 942.768677,427.706909 
	C916.275940,408.412415 887.060242,394.681000 856.289062,383.904755 
	C820.517578,371.377350 783.532227,365.037811 745.888672,361.968536 
	C742.899902,361.724823 739.913391,361.443878 736.931763,361.125031 
	C724.865356,359.834595 718.973999,349.516174 725.247986,339.180908 
	C733.874878,324.969849 743.304871,311.238708 752.625183,297.460571 
	C755.768921,292.813263 759.627197,288.649353 763.984680,283.239258 
	C753.810242,282.498383 744.628357,281.397003 735.429565,281.230530 
	C677.890381,280.189270 623.921021,294.257843 572.855408,320.251678 
	C564.249268,324.632446 555.782715,329.291382 547.302246,333.914490 
	C536.628967,339.732971 526.593140,335.109985 523.738831,322.983673 
	C520.036072,307.252716 519.797852,291.287964 520.532227,275.260834 
	C520.728699,270.974365 521.020264,266.692291 521.303040,261.805115 
	C494.690826,272.575500 471.395172,287.410675 449.954773,305.936157 
z"/>
<path fill="#0669F3" opacity="1.000000" stroke="none" 
	d="
M948.524048,766.743408 
	C945.112427,762.449341 942.075989,758.296936 938.532043,754.635681 
	C936.372192,752.404297 933.260864,751.124878 930.886719,749.061401 
	C928.367371,746.871704 926.214661,744.260193 923.901855,741.832886 
	C927.222046,740.259460 930.410156,737.758179 933.883972,737.263611 
	C955.764709,734.148315 973.064392,748.020630 975.678589,770.978394 
	C978.488708,795.656128 968.065491,815.459290 951.155334,832.244080 
	C940.268616,843.050049 926.766541,849.392822 911.777222,852.701721 
	C909.911133,853.113770 907.616272,854.739441 906.827393,856.417297 
	C882.707642,907.721680 842.686035,939.683289 788.148315,953.662476 
	C776.421631,956.668274 764.212280,957.762756 752.277832,960.015930 
	C750.389893,960.372375 748.036499,961.806824 747.161438,963.425598 
	C739.956421,976.754700 729.272583,983.951416 713.825134,984.131592 
	C698.833252,984.306335 683.850342,985.136169 668.859131,985.498352 
	C649.074768,985.976440 633.518127,971.411865 633.119019,952.230652 
	C632.696411,931.919617 647.566284,916.443298 667.692932,915.991821 
	C682.016724,915.670532 696.340393,915.193298 710.652344,914.532898 
	C725.831909,913.832458 738.219421,918.184143 745.794678,932.418091 
	C746.411133,933.576538 748.670227,934.651672 750.032654,934.507202 
	C791.031738,930.159363 827.590759,915.958862 856.901001,885.877319 
	C866.731079,875.788574 874.702515,864.396790 880.958069,852.258484 
	C875.852844,848.655029 870.935303,845.367432 866.231018,841.798706 
	C863.121277,839.439758 862.484741,836.273926 863.702637,832.421448 
	C865.757690,825.921021 867.601440,819.340393 869.193359,812.711670 
	C870.223694,808.421326 872.606140,808.599426 875.243713,810.613098 
	C877.025818,811.973633 878.536560,813.979736 879.551636,816.006104 
	C884.833923,826.551575 893.581055,830.323486 904.767578,828.817505 
	C928.686035,825.597473 947.567139,808.245544 950.893127,786.595581 
	C951.851929,780.354736 949.512512,773.607300 948.524048,766.743408 
z"/>
<path fill="#FCFBFC" opacity="1.000000" stroke="none" 
	d="
M521.275635,676.743164 
	C535.193726,701.304016 533.903931,732.450439 518.365417,751.943298 
	C502.571777,771.756348 478.541687,771.104004 463.739349,750.460388 
	C448.444458,729.129822 448.358032,695.279480 463.545074,674.361816 
	C479.055908,652.998108 502.884918,652.687378 518.989502,673.640747 
	C519.699036,674.563904 520.386536,675.503906 521.275635,676.743164 
z"/>
<path fill="#F8F8F8" opacity="1.000000" stroke="none" 
	d="
M591.941284,888.010742 
	C566.723083,884.829102 544.798218,875.283508 525.979614,858.787354 
	C524.104431,857.143616 522.257507,855.439148 520.598267,853.583313 
	C517.119202,849.692017 517.096008,844.367798 520.386841,840.930786 
	C524.047913,837.107056 528.806641,837.071045 533.222412,840.980530 
	C548.638306,854.629272 566.324402,863.843506 586.658813,867.267517 
	C625.523865,873.811829 659.772095,863.847473 689.210388,837.567566 
	C690.451904,836.459351 691.600403,835.246704 692.846008,834.143433 
	C697.164490,830.318176 701.719910,830.129395 705.326111,833.590576 
	C708.998230,837.114929 709.585205,842.830811 705.564270,846.528259 
	C697.390686,854.044373 689.279785,861.886353 680.069702,867.968811 
	C653.492004,885.520874 623.892883,891.289856 591.941284,888.010742 
z"/>
<path fill="#F9F8F9" opacity="1.000000" stroke="none" 
	d="
M772.806763,716.241943 
	C778.097961,722.000305 778.639893,728.303406 774.490845,733.022339 
	C770.380554,737.697083 764.515198,738.010193 758.285522,733.887573 
	C732.580322,716.877014 702.737183,716.926331 677.680969,734.020874 
	C672.083679,737.839600 666.019348,737.142822 662.142944,732.235474 
	C658.493408,727.615356 658.984802,720.586670 663.625732,716.426697 
	C682.126221,699.843506 703.743103,692.685852 728.503723,695.536194 
	C745.419617,697.483521 760.105225,704.354492 772.806763,716.241943 
z"/>
<path fill="#F8F7F8" opacity="1.000000" stroke="none" 
	d="
M721.690979,641.362793 
	C706.739502,643.970398 692.963013,648.744690 679.708191,655.140076 
	C673.161499,658.298889 667.460083,656.771301 664.767639,651.311584 
	C662.216553,646.138367 664.599670,640.683533 670.860901,637.552368 
	C691.154358,627.403687 712.350281,620.444641 735.221130,619.452087 
	C749.935181,618.813538 764.138367,620.798035 777.222717,628.017822 
	C779.497375,629.272888 781.798828,630.912903 783.356262,632.937866 
	C786.032837,636.417908 786.205261,640.466614 783.394592,644.036804 
	C780.551392,647.648376 776.709473,649.249451 772.338196,647.017822 
	C756.287109,638.823608 739.392944,638.490540 721.690979,641.362793 
z"/>
<path fill="#F8F7F8" opacity="1.000000" stroke="none" 
	d="
M509.110657,619.650330 
	C488.273834,613.093994 469.014343,615.810852 450.793610,626.975159 
	C445.179047,630.415344 439.560364,629.418030 436.673553,624.810486 
	C433.694763,620.056091 434.994019,614.855469 440.145813,610.911682 
	C467.118256,590.263672 508.745850,589.827271 534.921875,609.835083 
	C538.720703,612.738708 540.767090,616.268127 539.763794,621.021179 
	C538.889221,625.164246 536.113953,628.033447 531.927979,628.322266 
	C529.315674,628.502563 526.472961,627.455383 523.953491,626.422668 
	C519.049316,624.412354 514.299683,622.024963 509.110657,619.650330 
z"/>
<path fill="#F5F5F6" opacity="1.000000" stroke="none" 
	d="
M913.053528,804.208069 
	C905.507874,807.005432 901.431396,806.564209 899.132507,802.891663 
	C896.768921,799.115845 898.104919,795.429443 903.234009,789.795959 
	C907.587769,785.013916 911.781738,780.059082 915.704224,774.919617 
	C919.380371,770.102661 924.086792,769.860901 927.688904,774.848694 
	C930.334473,778.511902 930.516907,782.546387 929.016113,786.726929 
	C926.177551,794.633850 920.843933,800.289490 913.053528,804.208069 
z"/>
</svg>